<?xml version="1.0" encoding="UTF-8" ?>
<!DOCTYPE svg PUBLIC "-//W3C//DTD SVG 1.1//EN" "http://www.w3.org/Graphics/SVG/1.1/DTD/svg11.dtd">
<svg width="376pt" height="39pt" viewBox="0 0 376 39" version="1.1" xmlns="http://www.w3.org/2000/svg">
<g id="#000000ff">
</g>
<g id="#ee0000ff">
<path fill="#ee0000" opacity="1.00" d=" M 20.29 4.36 C 23.13 -0.76 31.60 -0.50 34.34 4.59 C 39.41 13.01 44.19 21.61 49.11 30.12 C 52.66 30.16 56.21 30.15 59.75 30.09 C 59.69 20.52 59.73 10.95 59.68 1.39 C 65.29 1.99 72.36 -0.49 76.52 4.55 C 83.08 11.91 89.00 19.83 95.63 27.13 C 95.76 18.55 95.65 9.96 95.65 1.37 C 112.44 1.37 129.22 1.35 146.01 1.37 C 149.57 1.30 153.31 2.54 155.53 5.46 C 157.23 7.19 156.78 9.78 156.93 11.98 C 156.85 14.60 157.34 17.53 155.54 19.72 C 157.31 23.56 156.91 27.91 156.63 32.00 C 155.33 36.44 150.28 38.60 145.96 38.48 C 134.25 38.48 122.54 38.48 110.82 38.46 C 110.83 30.84 110.83 23.22 110.83 15.60 C 122.77 15.55 134.72 15.63 146.67 15.55 C 146.71 13.53 146.66 11.50 146.52 9.48 C 132.95 9.64 119.37 9.49 105.80 9.56 C 105.83 19.17 105.77 28.78 105.84 38.39 C 100.40 37.77 93.41 40.33 89.31 35.58 C 82.72 28.03 76.61 20.05 69.92 12.58 C 69.87 21.19 69.88 29.79 69.92 38.40 C 52.24 38.42 34.56 38.41 16.88 38.40 C 18.53 35.64 20.16 32.87 21.80 30.10 C 27.19 30.18 32.58 30.13 37.98 30.15 C 34.32 24.21 31.39 17.76 27.08 12.26 C 22.28 19.82 17.95 27.67 13.41 35.39 C 12.71 36.34 12.33 37.68 11.24 38.26 C 7.69 38.53 4.13 38.29 0.58 38.39 C 7.25 27.11 13.55 15.60 20.29 4.36 M 121.09 23.84 C 121.05 25.94 121.05 28.05 121.09 30.16 C 129.65 30.06 138.22 30.39 146.78 30.02 C 146.74 28.01 146.73 26.00 146.74 23.98 C 138.19 23.67 129.64 23.93 121.09 23.84 Z" />
<path fill="#ee0000" opacity="1.00" d=" M 162.17 9.91 C 161.88 4.76 167.18 1.21 171.93 1.41 C 197.63 1.27 223.35 1.38 249.06 1.35 C 253.88 1.00 259.23 4.80 258.88 9.96 C 258.73 13.28 259.68 17.05 257.55 19.92 C 258.96 23.17 259.65 26.65 259.98 30.16 C 262.15 30.17 264.31 30.17 266.48 30.19 C 266.52 20.61 266.51 11.03 266.48 1.44 C 270.64 1.55 274.80 1.25 278.95 1.57 C 281.11 1.73 282.56 3.55 283.89 5.05 C 289.95 12.45 296.23 19.67 302.32 27.04 C 302.38 18.47 302.40 9.91 302.43 1.34 C 311.12 1.38 319.80 1.36 328.49 1.36 C 328.43 13.71 328.45 26.07 328.43 38.42 C 325.06 38.41 321.70 38.42 318.33 38.46 C 318.25 28.82 318.31 19.18 318.31 9.54 C 316.41 9.54 314.52 9.54 312.64 9.54 C 312.65 19.17 312.65 28.79 312.64 38.42 C 307.08 37.75 299.76 40.48 295.75 35.30 C 289.48 27.68 283.14 20.12 276.81 12.54 C 276.77 21.21 276.85 29.89 276.62 38.56 C 268.26 38.32 259.90 38.42 251.55 38.38 C 250.64 33.66 249.90 28.90 248.84 24.21 C 240.65 23.55 232.41 24.07 224.20 23.91 C 224.12 28.73 224.16 33.56 224.16 38.39 C 220.74 38.42 217.31 38.42 213.89 38.38 C 213.89 30.84 213.89 23.31 213.90 15.77 C 225.53 15.72 237.16 15.85 248.79 15.74 C 248.82 13.70 248.83 11.66 248.86 9.62 C 228.24 9.38 207.62 9.58 187.00 9.52 C 182.07 9.60 177.12 9.30 172.20 9.72 C 172.23 11.68 172.26 13.64 172.26 15.60 C 184.23 15.62 196.21 15.59 208.19 15.62 C 208.19 18.35 208.18 21.08 208.18 23.82 C 196.22 23.85 184.25 23.82 172.29 23.86 C 172.30 25.93 172.28 27.99 172.27 30.06 C 184.24 30.33 196.22 30.07 208.19 30.16 C 208.20 32.90 208.20 35.65 208.20 38.40 C 196.11 38.41 184.03 38.42 171.95 38.41 C 167.29 38.65 162.00 35.13 162.17 30.10 C 162.13 23.37 162.12 16.64 162.17 9.91 Z" />
<path fill="#ee0000" opacity="1.00" d=" M 334.37 9.90 C 334.05 5.24 338.48 1.34 342.99 1.46 C 353.81 1.36 364.64 1.41 375.46 1.36 C 375.44 4.08 375.44 6.80 375.46 9.52 C 365.19 9.54 354.92 9.39 344.65 9.59 C 344.64 16.43 344.58 23.28 344.69 30.12 C 354.93 30.14 365.17 30.16 375.41 30.11 C 375.42 32.88 375.43 35.64 375.43 38.41 C 364.62 38.35 353.81 38.50 343.01 38.36 C 338.49 38.39 334.46 34.46 334.39 29.95 C 334.30 23.27 334.35 16.58 334.37 9.90 Z" />
</g>
</svg>
