<?xml version="1.0" encoding="UTF-8" ?>
<!DOCTYPE svg PUBLIC "-//W3C//DTD SVG 1.1//EN" "http://www.w3.org/Graphics/SVG/1.1/DTD/svg11.dtd">
<svg width="625pt" height="208pt" viewBox="0 0 625 208" version="1.1" xmlns="http://www.w3.org/2000/svg">
<g id="#ffffffff">
<path fill="#ffffff" opacity="1.00" d=" M 97.58 0.00 L 527.43 0.00 C 549.45 1.42 570.95 9.94 587.84 24.15 C 609.57 42.16 623.29 69.29 625.00 97.45 L 625.00 110.46 C 623.67 131.03 616.22 151.19 603.56 167.49 C 585.53 191.10 557.07 206.23 527.41 208.00 L 97.55 208.00 C 73.19 206.44 49.46 196.14 31.92 179.12 C 13.13 161.37 1.63 136.34 0.00 110.58 L 0.00 97.24 C 1.62 73.20 11.71 49.80 28.41 32.39 C 46.28 13.36 71.54 1.62 97.58 0.00 M 92.55 14.74 C 68.36 18.74 46.20 33.21 32.60 53.59 C 21.12 70.52 15.71 91.46 17.56 111.84 C 19.30 132.43 28.38 152.35 42.91 167.05 C 58.07 182.89 79.24 192.74 101.10 194.31 C 120.66 195.81 140.65 190.73 157.05 179.97 C 173.01 169.70 185.62 154.30 192.49 136.60 C 200.93 115.10 200.60 90.30 191.53 69.05 C 183.28 49.36 167.79 32.87 148.76 23.23 C 131.59 14.43 111.56 11.46 92.55 14.74 M 419.50 57.24 C 412.83 57.25 406.17 57.25 399.50 57.24 C 399.49 61.91 399.50 66.58 399.50 71.25 C 419.42 71.25 439.33 71.25 459.25 71.25 C 459.25 66.58 459.25 61.91 459.25 57.25 C 452.93 57.26 446.61 57.22 440.29 57.27 C 440.23 54.10 440.24 50.92 440.25 47.75 C 433.33 47.74 426.42 47.75 419.50 47.75 C 419.49 50.91 419.49 54.08 419.50 57.24 M 366.24 51.01 C 366.25 68.67 366.25 86.33 366.24 103.99 C 373.49 104.01 380.75 104.00 388.00 104.00 C 388.00 86.33 388.00 68.67 388.00 51.00 C 380.75 51.00 373.49 50.99 366.24 51.01 M 462.98 51.53 C 463.04 72.86 462.96 94.19 463.02 115.51 C 469.51 115.49 476.00 115.51 482.50 115.50 C 482.50 107.50 482.50 99.50 482.50 91.50 C 485.50 91.50 488.49 91.50 491.50 91.50 C 491.49 100.00 491.51 108.49 491.49 116.98 C 498.24 117.02 505.00 117.00 511.76 116.99 C 511.75 95.00 511.75 73.00 511.76 51.01 C 505.00 51.00 498.25 50.99 491.49 51.01 C 491.50 59.34 491.49 67.67 491.50 76.00 C 488.49 76.00 485.50 76.00 482.50 76.00 C 482.50 67.83 482.50 59.67 482.50 51.50 C 475.99 51.52 469.49 51.45 462.98 51.53 M 299.40 75.18 C 294.72 83.47 285.38 87.50 276.48 89.42 C 276.51 94.54 276.52 99.65 276.46 104.77 C 290.17 103.01 304.24 98.34 314.26 88.44 C 324.35 97.93 338.26 101.93 351.71 103.60 C 351.80 98.49 351.73 93.39 351.75 88.28 C 343.30 86.40 334.11 83.29 329.19 75.63 C 324.47 68.53 324.94 59.65 325.00 51.50 C 317.78 51.46 310.57 51.58 303.35 51.43 C 303.17 59.43 303.76 68.05 299.40 75.18 M 421.54 74.70 C 415.27 75.86 408.93 78.66 405.11 83.96 C 400.87 89.67 400.56 97.88 404.06 104.02 C 407.61 110.12 414.39 113.54 421.12 114.86 C 429.93 116.49 439.50 115.87 447.49 111.54 C 453.49 108.34 457.92 101.97 457.79 95.03 C 458.09 87.81 453.49 81.06 447.17 77.84 C 439.34 73.84 430.10 73.23 421.54 74.70 M 288.24 108.01 C 288.25 112.59 288.24 117.17 288.25 121.75 C 314.25 121.76 340.25 121.75 366.24 121.76 C 366.24 123.67 366.24 125.58 366.25 127.49 C 340.25 127.50 314.25 127.50 288.26 127.49 C 288.23 138.33 288.26 149.16 288.24 159.99 C 322.00 160.00 355.75 160.01 389.51 159.99 C 389.49 155.49 389.50 151.00 389.50 146.50 C 363.00 146.49 336.50 146.50 310.00 146.50 C 310.00 144.66 310.00 142.83 310.00 141.00 C 336.00 141.00 362.00 141.00 388.00 141.00 C 388.00 130.00 388.00 119.00 388.00 108.00 C 354.75 108.00 321.49 107.99 288.24 108.01 M 442.63 119.84 C 432.95 121.02 422.48 122.24 414.51 128.39 C 408.69 132.69 407.01 141.28 410.53 147.55 C 412.38 150.61 415.22 153.00 418.40 154.59 C 426.56 158.85 435.87 160.01 444.91 160.89 C 458.30 161.88 471.80 161.82 485.14 160.18 C 493.01 159.00 501.18 157.41 507.85 152.80 C 512.00 150.00 514.84 145.14 514.54 140.05 C 514.74 134.47 511.10 129.49 506.47 126.74 C 499.42 122.47 491.08 121.15 483.03 120.10 C 469.62 118.64 456.06 118.67 442.63 119.84 Z" />
<path fill="#ffffff" opacity="1.00" d=" M 94.85 54.25 C 102.29 54.25 109.74 54.25 117.18 54.25 C 122.37 86.37 127.45 118.51 132.68 150.62 C 127.44 150.90 122.20 150.68 116.96 150.75 C 116.10 144.92 115.28 139.09 114.45 133.26 C 108.29 133.24 102.12 133.25 95.96 133.25 C 95.10 139.08 94.28 144.91 93.45 150.74 C 88.77 150.75 84.10 150.76 79.42 150.73 C 84.53 118.57 89.80 86.42 94.85 54.25 M 98.05 119.93 C 102.81 120.07 107.56 119.97 112.32 120.00 C 109.90 104.25 107.46 88.49 105.03 72.74 C 102.57 88.45 100.51 104.22 98.05 119.93 Z" />
<path fill="#ffffff" opacity="1.00" d=" M 426.11 88.00 C 431.17 86.02 438.58 88.84 438.54 94.96 C 438.07 103.24 424.95 104.58 421.60 97.65 C 419.66 93.89 422.22 89.15 426.11 88.00 Z" />
<path fill="#ffffff" opacity="1.00" d=" M 440.64 134.82 C 446.05 134.05 451.53 133.68 457.00 133.75 C 466.69 133.81 476.54 133.31 486.07 135.50 C 488.70 136.17 492.07 137.13 492.87 140.14 C 492.30 143.32 488.74 144.31 486.06 145.05 C 475.52 147.21 464.69 146.70 453.99 146.73 C 447.26 146.32 440.29 146.38 433.90 143.94 C 431.72 143.24 429.26 140.53 431.30 138.38 C 433.67 135.83 437.42 135.50 440.64 134.82 Z" />
</g>
</svg>
